<svg xmlns="http://www.w3.org/2000/svg" xmlns:xlink="http://www.w3.org/1999/xlink" contentStyleType="text/css" height="403px" preserveAspectRatio="none" style="width:655px;height:403px;background:#FFFFFF;" version="1.1" viewBox="0 0 655 403" width="655px" zoomAndPan="magnify"><defs/><g><text fill="#000000" font-family="sans-serif" font-size="14" font-weight="bold" lengthAdjust="spacing" textLength="342.1523" x="149.9158" y="22.9951">Diagrama de Classes com Relacionamentos</text><!--class fact_inadimplencia--><g id="elem_fact_inadimplencia"><rect codeLine="5" fill="#F1F1F1" height="178.375" id="fact_inadimplencia" rx="2.5" ry="2.5" style="stroke:#181818;stroke-width:0.5;" width="252.5156" x="175.96" y="44.2969"/><ellipse cx="232.0284" cy="60.2969" fill="#ADD1B2" rx="11" ry="11" style="stroke:#181818;stroke-width:1.0;"/><path d="M234.9971,65.9375 Q234.419,66.2344 233.7784,66.375 Q233.1377,66.5313 232.4346,66.5313 Q229.9346,66.5313 228.6065,64.8906 Q227.294,63.2344 227.294,60.1094 Q227.294,56.9844 228.6065,55.3281 Q229.9346,53.6719 232.4346,53.6719 Q233.1377,53.6719 233.7784,53.8281 Q234.4346,53.9844 234.9971,54.2813 L234.9971,57 Q234.3721,56.4219 233.7784,56.1563 Q233.1846,55.875 232.5596,55.875 Q231.2159,55.875 230.5284,56.9531 Q229.8409,58.0156 229.8409,60.1094 Q229.8409,62.2031 230.5284,63.2813 Q231.2159,64.3438 232.5596,64.3438 Q233.1846,64.3438 233.7784,64.0781 Q234.3721,63.7969 234.9971,63.2188 L234.9971,65.9375 Z " fill="#000000"/><text fill="#000000" font-family="sans-serif" font-size="14" lengthAdjust="spacing" textLength="131.8789" x="252.5284" y="65.1436">fact_inadimplencia</text><line style="stroke:#181818;stroke-width:0.5;" x1="176.96" x2="427.4756" y1="76.2969" y2="76.2969"/><ellipse cx="186.96" cy="89.9453" fill="none" rx="3" ry="3" style="stroke:#038048;stroke-width:1.0;"/><text fill="#000000" font-family="sans-serif" font-size="14" lengthAdjust="spacing" textLength="91.8066" x="195.96" y="93.292">int AnoIndice</text><ellipse cx="186.96" cy="106.2422" fill="none" rx="3" ry="3" style="stroke:#038048;stroke-width:1.0;"/><text fill="#000000" font-family="sans-serif" font-size="14" lengthAdjust="spacing" textLength="116.3545" x="195.96" y="109.5889">string SigAgente</text><ellipse cx="186.96" cy="122.5391" fill="none" rx="3" ry="3" style="stroke:#038048;stroke-width:1.0;"/><text fill="#000000" font-family="sans-serif" font-size="14" lengthAdjust="spacing" textLength="131.5645" x="195.96" y="125.8857">string SigIndicador</text><ellipse cx="186.96" cy="138.8359" fill="none" rx="3" ry="3" style="stroke:#038048;stroke-width:1.0;"/><text fill="#000000" font-family="sans-serif" font-size="14" lengthAdjust="spacing" textLength="153.1387" x="195.96" y="142.1826">float VlrIndiceEnviado</text><ellipse cx="186.96" cy="155.1328" fill="none" rx="3" ry="3" style="stroke:#038048;stroke-width:1.0;"/><text fill="#000000" font-family="sans-serif" font-size="14" lengthAdjust="spacing" textLength="226.5156" x="195.96" y="158.4795">date DatGeracaoConjuntoDados</text><line style="stroke:#181818;stroke-width:1.0;" x1="176.96" x2="427.4756" y1="165.7813" y2="165.7813"/><ellipse cx="186.96" cy="179.4297" fill="none" rx="3" ry="3" style="stroke:#038048;stroke-width:1.0;"/><text fill="#000000" font-family="sans-serif" font-size="14" lengthAdjust="spacing" textLength="90.7881" x="195.96" y="182.7764">AnoIndice FK</text><ellipse cx="186.96" cy="195.7266" fill="none" rx="3" ry="3" style="stroke:#038048;stroke-width:1.0;"/><text fill="#000000" font-family="sans-serif" font-size="14" lengthAdjust="spacing" textLength="93.3994" x="195.96" y="199.0732">SigAgente FK</text><ellipse cx="186.96" cy="212.0234" fill="none" rx="3" ry="3" style="stroke:#038048;stroke-width:1.0;"/><text fill="#000000" font-family="sans-serif" font-size="14" lengthAdjust="spacing" textLength="108.6094" x="195.96" y="215.3701">SigIndicador FK</text></g><!--class fact_economicos--><g id="elem_fact_economicos"><rect codeLine="17" fill="#F1F1F1" height="129.4844" id="fact_economicos" rx="2.5" ry="2.5" style="stroke:#181818;stroke-width:0.5;" width="185.5439" x="463.44" y="68.7469"/><ellipse cx="494.843" cy="84.7469" fill="#ADD1B2" rx="11" ry="11" style="stroke:#181818;stroke-width:1.0;"/><path d="M497.8118,90.3875 Q497.2337,90.6844 496.593,90.825 Q495.9524,90.9812 495.2493,90.9812 Q492.7493,90.9812 491.4212,89.3406 Q490.1087,87.6844 490.1087,84.5594 Q490.1087,81.4344 491.4212,79.7781 Q492.7493,78.1219 495.2493,78.1219 Q495.9524,78.1219 496.593,78.2781 Q497.2493,78.4344 497.8118,78.7312 L497.8118,81.45 Q497.1868,80.8719 496.593,80.6062 Q495.9993,80.325 495.3743,80.325 Q494.0305,80.325 493.343,81.4031 Q492.6555,82.4656 492.6555,84.5594 Q492.6555,86.6531 493.343,87.7312 Q494.0305,88.7937 495.3743,88.7937 Q495.9993,88.7937 496.593,88.5281 Q497.1868,88.2469 497.8118,87.6687 L497.8118,90.3875 Z " fill="#000000"/><text fill="#000000" font-family="sans-serif" font-size="14" lengthAdjust="spacing" textLength="117.0928" x="512.4881" y="89.5936">fact_economicos</text><line style="stroke:#181818;stroke-width:0.5;" x1="464.44" x2="647.9839" y1="100.7469" y2="100.7469"/><ellipse cx="474.44" cy="114.3953" fill="none" rx="3" ry="3" style="stroke:#038048;stroke-width:1.0;"/><text fill="#000000" font-family="sans-serif" font-size="14" lengthAdjust="spacing" textLength="91.8066" x="483.44" y="117.742">int AnoIndice</text><ellipse cx="474.44" cy="130.6922" fill="none" rx="3" ry="3" style="stroke:#038048;stroke-width:1.0;"/><text fill="#000000" font-family="sans-serif" font-size="14" lengthAdjust="spacing" textLength="159.5439" x="483.44" y="134.0389">float TaxaDesemprego</text><ellipse cx="474.44" cy="146.9891" fill="none" rx="3" ry="3" style="stroke:#038048;stroke-width:1.0;"/><text fill="#000000" font-family="sans-serif" font-size="14" lengthAdjust="spacing" textLength="91.1436" x="483.44" y="150.3357">float Inflacao</text><ellipse cx="474.44" cy="163.2859" fill="none" rx="3" ry="3" style="stroke:#038048;stroke-width:1.0;"/><text fill="#000000" font-family="sans-serif" font-size="14" lengthAdjust="spacing" textLength="58.0781" x="483.44" y="166.6326">float PIB</text><line style="stroke:#181818;stroke-width:1.0;" x1="464.44" x2="647.9839" y1="173.9344" y2="173.9344"/><ellipse cx="474.44" cy="187.5828" fill="none" rx="3" ry="3" style="stroke:#038048;stroke-width:1.0;"/><text fill="#000000" font-family="sans-serif" font-size="14" lengthAdjust="spacing" textLength="90.7881" x="483.44" y="190.9295">AnoIndice FK</text></g><!--class dim_agente--><g id="elem_dim_agente"><rect codeLine="26" fill="#F1F1F1" height="80.5938" id="dim_agente" rx="2.5" ry="2.5" style="stroke:#181818;stroke-width:0.5;" width="164.4277" x="7" y="307.8269"/><ellipse cx="44.4815" cy="323.8269" fill="#ADD1B2" rx="11" ry="11" style="stroke:#181818;stroke-width:1.0;"/><path d="M47.4503,329.4675 Q46.8722,329.7644 46.2315,329.905 Q45.5909,330.0613 44.8878,330.0613 Q42.3878,330.0613 41.0597,328.4206 Q39.7472,326.7644 39.7472,323.6394 Q39.7472,320.5144 41.0597,318.8581 Q42.3878,317.2019 44.8878,317.2019 Q45.5909,317.2019 46.2315,317.3581 Q46.8878,317.5144 47.4503,317.8113 L47.4503,320.53 Q46.8253,319.9519 46.2315,319.6863 Q45.6378,319.405 45.0128,319.405 Q43.669,319.405 42.9815,320.4831 Q42.294,321.5456 42.294,323.6394 Q42.294,325.7331 42.9815,326.8113 Q43.669,327.8738 45.0128,327.8738 Q45.6378,327.8738 46.2315,327.6081 Q46.8253,327.3269 47.4503,326.7488 L47.4503,329.4675 Z " fill="#000000"/><text fill="#000000" font-family="sans-serif" font-size="14" lengthAdjust="spacing" textLength="82.4688" x="63.4774" y="328.6736">dim_agente</text><line style="stroke:#181818;stroke-width:0.5;" x1="8" x2="170.4277" y1="339.8269" y2="339.8269"/><ellipse cx="18" cy="353.4753" fill="none" rx="3" ry="3" style="stroke:#038048;stroke-width:1.0;"/><text fill="#000000" font-family="sans-serif" font-size="14" lengthAdjust="spacing" textLength="138.4277" x="27" y="356.822">string SigAgente PK</text><ellipse cx="18" cy="369.7722" fill="none" rx="3" ry="3" style="stroke:#038048;stroke-width:1.0;"/><text fill="#000000" font-family="sans-serif" font-size="14" lengthAdjust="spacing" textLength="100.4678" x="27" y="373.1189">long NumCNPJ</text><line style="stroke:#181818;stroke-width:0.5;" x1="8" x2="170.4277" y1="380.4206" y2="380.4206"/></g><!--class dim_indicador--><g id="elem_dim_indicador"><rect codeLine="31" fill="#F1F1F1" height="80.5938" id="dim_indicador" rx="2.5" ry="2.5" style="stroke:#181818;stroke-width:0.5;" width="204.7734" x="206.83" y="307.8269"/><ellipse cx="255.748" cy="323.8269" fill="#ADD1B2" rx="11" ry="11" style="stroke:#181818;stroke-width:1.0;"/><path d="M258.7167,329.4675 Q258.1386,329.7644 257.498,329.905 Q256.8573,330.0613 256.1542,330.0613 Q253.6542,330.0613 252.3261,328.4206 Q251.0136,326.7644 251.0136,323.6394 Q251.0136,320.5144 252.3261,318.8581 Q253.6542,317.2019 256.1542,317.2019 Q256.8573,317.2019 257.498,317.3581 Q258.1542,317.5144 258.7167,317.8113 L258.7167,320.53 Q258.0917,319.9519 257.498,319.6863 Q256.9042,319.405 256.2792,319.405 Q254.9355,319.405 254.248,320.4831 Q253.5605,321.5456 253.5605,323.6394 Q253.5605,325.7331 254.248,326.8113 Q254.9355,327.8738 256.2792,327.8738 Q256.9042,327.8738 257.498,327.6081 Q258.0917,327.3269 258.7167,326.7488 L258.7167,329.4675 Z " fill="#000000"/><text fill="#000000" font-family="sans-serif" font-size="14" lengthAdjust="spacing" textLength="98.4375" x="276.248" y="328.6736">dim_indicador</text><line style="stroke:#181818;stroke-width:0.5;" x1="207.83" x2="410.6034" y1="339.8269" y2="339.8269"/><ellipse cx="217.83" cy="353.4753" fill="none" rx="3" ry="3" style="stroke:#038048;stroke-width:1.0;"/><text fill="#000000" font-family="sans-serif" font-size="14" lengthAdjust="spacing" textLength="153.6377" x="226.83" y="356.822">string SigIndicador PK</text><ellipse cx="217.83" cy="369.7722" fill="none" rx="3" ry="3" style="stroke:#038048;stroke-width:1.0;"/><text fill="#000000" font-family="sans-serif" font-size="14" lengthAdjust="spacing" textLength="178.7734" x="226.83" y="373.1189">string DescricaoIndicador</text><line style="stroke:#181818;stroke-width:0.5;" x1="207.83" x2="410.6034" y1="380.4206" y2="380.4206"/></g><!--class dim_tempo--><g id="elem_dim_tempo"><rect codeLine="36" fill="#F1F1F1" height="96.8906" id="dim_tempo" rx="2.5" ry="2.5" style="stroke:#181818;stroke-width:0.5;" width="116.3027" x="473.06" y="299.6769"/><ellipse cx="490.6233" cy="315.6769" fill="#ADD1B2" rx="11" ry="11" style="stroke:#181818;stroke-width:1.0;"/><path d="M493.5921,321.3175 Q493.014,321.6144 492.3733,321.755 Q491.7327,321.9113 491.0296,321.9113 Q488.5296,321.9113 487.2015,320.2706 Q485.889,318.6144 485.889,315.4894 Q485.889,312.3644 487.2015,310.7081 Q488.5296,309.0519 491.0296,309.0519 Q491.7327,309.0519 492.3733,309.2081 Q493.0296,309.3644 493.5921,309.6613 L493.5921,312.38 Q492.9671,311.8019 492.3733,311.5363 Q491.7796,311.255 491.1546,311.255 Q489.8108,311.255 489.1233,312.3331 Q488.4358,313.3956 488.4358,315.4894 Q488.4358,317.5831 489.1233,318.6613 Q489.8108,319.7238 491.1546,319.7238 Q491.7796,319.7238 492.3733,319.4581 Q492.9671,319.1769 493.5921,318.5988 L493.5921,321.3175 Z " fill="#000000"/><text fill="#000000" font-family="sans-serif" font-size="14" lengthAdjust="spacing" textLength="78.6064" x="505.193" y="320.5236">dim_tempo</text><line style="stroke:#181818;stroke-width:0.5;" x1="474.06" x2="588.3627" y1="331.6769" y2="331.6769"/><ellipse cx="484.06" cy="345.3253" fill="none" rx="3" ry="3" style="stroke:#038048;stroke-width:1.0;"/><text fill="#000000" font-family="sans-serif" font-size="14" lengthAdjust="spacing" textLength="71.791" x="493.06" y="348.672">int Ano PK</text><ellipse cx="484.06" cy="361.6222" fill="none" rx="3" ry="3" style="stroke:#038048;stroke-width:1.0;"/><text fill="#000000" font-family="sans-serif" font-size="14" lengthAdjust="spacing" textLength="50.6885" x="493.06" y="364.9689">int Mes</text><ellipse cx="484.06" cy="377.9191" fill="none" rx="3" ry="3" style="stroke:#038048;stroke-width:1.0;"/><text fill="#000000" font-family="sans-serif" font-size="14" lengthAdjust="spacing" textLength="90.3027" x="493.06" y="381.2657">int Trimestre</text><line style="stroke:#181818;stroke-width:0.5;" x1="474.06" x2="588.3627" y1="388.5675" y2="388.5675"/></g><!--link fact_inadimplencia to dim_agente--><g id="link_fact_inadimplencia_dim_agente"><path codeLine="42" d="M213.43,223.1269 C183.97,252.5269 156.9053,279.5369 133.0953,303.3169 " fill="none" id="fact_inadimplencia-to-dim_agente" style="stroke:#181818;stroke-width:1.0;"/><polygon fill="#181818" points="128.85,307.5569,138.0446,304.0271,132.3878,304.0236,132.3913,298.3667,128.85,307.5569" style="stroke:#181818;stroke-width:1.0;"/><text fill="#000000" font-family="sans-serif" font-size="13" lengthAdjust="spacing" textLength="66.5933" x="184.21" y="265.7438">SigAgente</text></g><!--link fact_inadimplencia to dim_indicador--><g id="link_fact_inadimplencia_dim_indicador"><path codeLine="43" d="M305.13,223.1269 C306.1,252.5269 306.9333,277.7801 307.7133,301.5601 " fill="none" id="fact_inadimplencia-to-dim_indicador" style="stroke:#181818;stroke-width:1.0;"/><polygon fill="#181818" points="307.91,307.5569,311.6128,298.4306,307.7461,302.5596,303.6171,298.6928,307.91,307.5569" style="stroke:#181818;stroke-width:1.0;"/><text fill="#000000" font-family="sans-serif" font-size="13" lengthAdjust="spacing" textLength="80.7168" x="308.21" y="265.7438">SigIndicador</text></g><!--link fact_inadimplencia to dim_tempo--><g id="link_fact_inadimplencia_dim_tempo"><path codeLine="44" d="M397.67,223.1269 C425.78,249.2169 451.0524,272.6951 475.2824,295.1851 " fill="none" id="fact_inadimplencia-to-dim_tempo" style="stroke:#181818;stroke-width:1.0;"/><polygon fill="#181818" points="479.68,299.2669,475.8048,290.2124,476.0153,295.8654,470.3624,296.0759,479.68,299.2669" style="stroke:#181818;stroke-width:1.0;"/><text fill="#000000" font-family="sans-serif" font-size="13" lengthAdjust="spacing" textLength="64.1685" x="445.21" y="265.7438">AnoIndice</text></g><!--link fact_economicos to dim_tempo--><g id="link_fact_economicos_dim_tempo"><path codeLine="45" d="M548.68,198.5769 C544.87,230.9769 541.0191,263.6777 537.5291,293.4277 " fill="none" id="fact_economicos-to-dim_tempo" style="stroke:#181818;stroke-width:1.0;"/><polygon fill="#181818" points="536.83,299.3869,541.8514,290.9142,537.4126,294.4209,533.9059,289.9821,536.83,299.3869" style="stroke:#181818;stroke-width:1.0;"/><text fill="#000000" font-family="sans-serif" font-size="13" lengthAdjust="spacing" textLength="64.1685" x="544.21" y="265.7438">AnoIndice</text></g><!--SRC=[VL9DRy8m3BtpApokK__03fDOOOXz8CJGhiXAtSfJ4gCaJ9FG_lkIjalf1BlLx_dPxpczgQXcIx1TbBlPUlco0ANH-yaaSD04SyR6eK6e2Cf4a0Sb1hQaKR5OD6I3nFPM1JMgi6UB5Pk39giOuJG1k6KRO6PbPIjMb00V7Di6thYPDN727wpjmqfSWcij6E1Tkqwzi9ySgSHK6A9334jog51AiH_7w6OUQH_veaXDUIqyFgSwhnpgl2v1twCifCIAOIN-If3EtGw_S4wUpC5H8mE-ihLErWPaitguR2tlZRVRO-VmTEbKi6bzQudW-cZAzUPfBEOSvtJbhFs8ded6bOk436SVpGinbepYz_fKlPB__TmvDXHdKf9V-1EAuluit1rCSwJfV-qvJgV89lyLjPwZ89-uxpvxp-kjFm00]--></g></svg>